<svg>
  <symbol id="twitter" xmlns="http://www.w3.org/2000/svg" viewBox="0 0 24 24">
    <path d="M24 4.6a10 10 0 01-2.9.7 5 5 0 002.2-2.7c-1 .6-2 1-3.1 1.2a5 5 0 00-8.4 4.5A14 14 0 011.6 3.2 4.8 4.8 0 001 5.6a5 5 0 002.2 4.1 4.9 4.9 0 01-2.3-.6A5 5 0 005 14a5 5 0 01-2.2 0 5 5 0 004.6 3.5 9.9 9.9 0 01-6.1 2.1H0a14 14 0 007.6 2.2c9 0 14-7.5 14-14V7A10 10 0 0024 4.6z"/>
  </symbol>
  <symbol id="medium" xmlns="http://www.w3.org/2000/svg" viewBox="0 0 24 24">
    <path d="M13.5 12a6.8 6.8 0 01-6.7 6.8A6.8 6.8 0 010 12a6.8 6.8 0 016.8-6.8 6.8 6.8 0 016.7 6.8zm7.5 0c0 3.5-1.5 6.4-3.4 6.4s-3.4-2.9-3.4-6.4 1.5-6.4 3.4-6.4S21 8.5 21 12m3 0c0 3.2-.5 5.8-1.2 5.8s-1.2-2.6-1.2-5.8.5-5.8 1.2-5.8S24 8.8 24 12z"/>
  </symbol>
  <symbol id="linkedin" xmlns="http://www.w3.org/2000/svg" viewBox="0 0 24 24">
    <path d="M20.45 20.45h-3.56v-5.57c0-1.32-.02-3.03-1.85-3.03-1.85 0-2.13 1.44-2.13 2.94v5.66H9.35V9h3.42v1.56h.04a3.75 3.75 0 013.37-1.85c3.6 0 4.27 2.37 4.27 5.46v6.28zM5.34 7.43a2.06 2.06 0 110-4.12 2.06 2.06 0 010 4.12zm1.78 13.02H3.56V9h3.56v11.45zM22.22 0H1.78C.8 0 0 .77 0 1.73v20.54C0 23.23.8 24 1.77 24h20.45c.98 0 1.78-.77 1.78-1.73V1.73C24 .77 23.2 0 22.22 0z"/>
  </symbol>
  <symbol id="logo" xmlns="http://www.w3.org/2000/svg" viewBox="0 0 4 4">
    <rect x="0" y="0" width="3" height="1"></rect>
    <rect x="1" y="0" width="1" height="4"></rect>
    <rect x="0" y="3" width="2" height="1"></rect>
    <rect x="3" y="3" width="1" height="1"></rect>
  </symbol>
  <symbol id="pause" xmlns="http://www.w3.org/2000/svg" viewBox="0 0 24 24" fill="none" stroke="currentColor">
      <title>Pause</title>
      <path stroke-linecap="round" stroke-linejoin="round" stroke-width="2" d="M10 9v6m4-6v6m7-3a9 9 0 11-18 0 9 9 0 0118 0z" />
  </symbol>
  <symbol id="play" xmlns="http://www.w3.org/2000/svg" viewBox="0 0 24 24" fill="none" stroke="currentColor">
    <title>Play</title>
    <path stroke-linecap="round" stroke-linejoin="round" stroke-width="2" d="M14.752 11.168l-3.197-2.132A1 1 0 0010 9.87v4.263a1 1 0 001.555.832l3.197-2.132a1 1 0 000-1.664z" />
    <path stroke-linecap="round" stroke-linejoin="round" stroke-width="2" d="M21 12a9 9 0 11-18 0 9 9 0 0118 0z" />
  </symbol>
  <symbol id="link" xmlns="http://www.w3.org/2000/svg" viewBox="0 0 32 32" fill="none" stroke="currentcolor" stroke-linecap="round" stroke-linejoin="round" stroke-width="2">
    <path d="M18 8 C18 8 24 2 27 5 30 8 29 12 24 16 19 20 16 21 14 17 M14 24 C14 24 8 30 5 27 2 24 3 20 8 16 13 12 16 11 18 15"></path>
  </symbol>
</svg>